<svg width="24" height="27" viewBox="0 0 24 27" fill="none" xmlns="http://www.w3.org/2000/svg">
<path d="M23.5384 19.1051C22.5034 18.0104 20.5668 16.3635 20.5668 10.9688C20.5668 6.87129 17.6482 3.59121 13.7129 2.78648V1.6875C13.7129 0.755684 12.9457 0 11.9997 0C11.0536 0 10.2865 0.755684 10.2865 1.6875V2.78648C6.3511 3.59121 3.43253 6.87129 3.43253 10.9688C3.43253 16.3635 1.49592 18.0104 0.460921 19.1051C0.139492 19.4453 -0.00300774 19.8519 -0.000329172 20.25C0.00556368 21.1148 0.695028 21.9375 1.71931 21.9375H22.28C23.3043 21.9375 23.9943 21.1148 23.9997 20.25C24.0023 19.8519 23.8598 19.4447 23.5384 19.1051ZM3.61735 19.4062C4.75413 17.9313 5.99699 15.4865 6.00288 10.9993C6.00288 10.9888 5.99967 10.9793 5.99967 10.9688C5.99967 7.7066 8.68574 5.0625 11.9997 5.0625C15.3136 5.0625 17.9997 7.7066 17.9997 10.9688C17.9997 10.9793 17.9965 10.9888 17.9965 10.9993C18.0023 15.487 19.2452 17.9318 20.382 19.4062H3.61735ZM11.9997 27C13.8918 27 15.4266 25.4892 15.4266 23.625H8.57271C8.57271 25.4892 10.1075 27 11.9997 27Z" fill="#F1F1F1"/>
</svg>
